<svg xmlns="http://www.w3.org/2000/svg" width="250" height="250"><path fill="#F58A0C" d="M159.132 51.81c22.334.025 43.93 3.747 60.65 19.815 9.665 10.347 13.797 21.508 14.374 35.637-.514 12.294-6.388 23.386-15.094 31.926C208.094 148.202 189.418 157 175 157l.07 3.05c.127 8.071-.092 16.04-.883 24.075l-.212 2.365c-.541 5.02-1.617 9.023-3.975 13.51-3.011 2.007-3.981 2.36-7.438 2.5l-2.308.156c-2.796-.814-3.741-2.083-5.206-4.546-2.399-4.83-4.256-9.887-6.173-14.922l-2.164-5.598-1.48-3.828c-2.581-6.694-5.245-13.354-7.919-20.012l-1.314-3.28L133 143c-2.39 2.932-3.841 5.721-5.188 9.25l-1.042 2.703L126 157c-14.587.098-29.17.157-43.75-.375-1.01-.03-2.02-.062-3.06-.094l-2.8-.117-2.436-.095C72 156 72 156 70 154c-.25-2.5-.25-2.5 0-5 2.495-2.495 3.5-2.332 6.96-2.562l3.093-.224 3.322-.214q3.4-.243 6.8-.492l3.456-.25c4.986-.382 9.958-.87 14.931-1.383l2.594-.266q2.922-.3 5.844-.609l.35-2.612c1.125-5.862 3.695-11.167 6.025-16.638l1.5-3.625 1.46-3.453c.44-1.04.878-2.081 1.33-3.153C129 111 129 111 132 109c2.53.11 2.53.11 5 1 1.413 1.824 1.413 1.824 2.512 4.242l1.247 2.741c2.19 5.323 4.155 10.71 6.053 16.142l1.233 3.477Q149.53 140.797 151 145l.031-3.486q.147-16.224.308-32.448.084-8.342.158-16.684.072-8.043.156-16.086.031-3.077.056-6.152.037-4.293.086-8.585l.017-2.596c.088-6.986.32-7.087 7.32-7.153M175 73v63c12.081-1.726 22.624-6.286 30.375-15.937 4.305-6.218 5.09-11.808 4.234-19.215-1.568-7.33-5.587-15.006-11.765-19.371-7.4-4.683-14.237-7.043-22.844-8.477m-23 76 1 2Z"/><path fill="#FCFCFD" d="m96.914 51.902 3.32.005c3.464.005 6.927.018 10.391.03q3.545.008 7.09.014c5.762.01 11.523.03 17.285.049v22l-10.734.113q-5.199.071-10.396.15-3.588.049-7.175.083c-3.456.034-6.911.087-10.367.142l-3.193.02c-15.568.302-30.866 5.38-42.24 16.332-10.77 12.279-13.89 26.977-13.117 42.86 1.17 12.126 8.412 24.482 17.206 32.741C59 169.545 63.454 171.781 68 174l3.5 1.75c8.468 3.024 17.151 3.56 26.074 3.664l3.182.059c3.31.059 6.62.106 9.932.152l6.787.117q8.262.142 16.525.258.293 4.093.563 8.188l.17 2.33.146 2.275.143 2.079c-.026 2.474-.476 4.72-1.022 7.128q-10.083.075-20.166.11-3.421.015-6.843.04C79.621 202.356 56.41 199.683 35 181l-1.863-1.574c-13.496-12.317-20.279-30.463-21.24-48.342-.96-21.284 5.11-38.545 19.314-54.58C48.778 57.829 72.15 51.78 96.914 51.902"/><path fill="#DC9032" d="m77.766 146.727 2.234.023 2.234-.023c5.513.02 5.513.02 7.766 2.273l-15 1-2 5h52v-3l3-1-2 6c-14.587.098-29.17.157-43.75-.375-1.01-.03-2.02-.062-3.06-.094l-2.8-.117-2.436-.095C72 156 72 156 70 154c-.25-2.5-.25-2.5 0-5 2.56-2.56 4.272-2.26 7.766-2.273"/><path fill="#D78B30" d="m174 72 2 1-1 63 7-1-1 2c-2.875.75-2.875.75-6 1l-3-2c-.33-2.536-.33-2.536-.265-5.78l.052-3.67.104-3.984q.038-2.036.073-4.072.078-4.272.182-8.542c.089-3.65.16-7.3.225-10.949.063-3.479.135-6.958.207-10.437l.08-3.977.09-3.68.074-3.246C173 75 173 75 174 72"/><path fill="#E58B1F" d="M229 86c5.32 7.98 6.076 19.49 4.273 28.723-1.483 5.023-2.898 9.213-6.273 13.277.5-2.83 1.131-5.357 2.125-8.062.873-2.933 1.102-4.178-.125-6.938l-2-1 2-4h1l1-13-3-1z"/><path fill="#DE8C2A" d="m172 156 3 1c.21 9.12.064 18.106-.875 27.188l-.238 2.39c-.489 4.377-1.313 8.275-2.887 12.422-1.257-3.771-.902-7.104-.625-11l.133-2.195c.207-3.127.497-5.82 1.492-8.805l-2-1 1-2-2-2 3-1z"/><path fill="#EDF0F4" d="m43 99 1 2a88 88 0 0 1-2.375 5.813c-3.047 6.85-3.844 12.527-3.875 19.937l-.012 2.43c.058 5.848 1.064 10.374 3.262 15.82l-1 3c-5.715-10.685-6.336-26.596-3.423-38.324 1.459-3.917 3.446-7.7 6.423-10.676"/><path fill="#DD8E30" d="M209 98h2c.109 2.834.188 5.665.25 8.5l.102 2.398c.093 5.671-.775 10.527-4.352 15.102-3.25 1-3.25 1-6 1l1.242-1.723c5.893-8.444 7.09-15.097 6.758-25.277"/><path fill="#DF9330" d="M176 73q2.219-.04 4.438-.062l2.496-.036C185 73 185 73 186 74c2.249.493 4.507.899 6.773 1.305 2.56.799 3.512 1.669 5.227 3.695l1.387 1.605L203 85l-1 2-1.75-2.125C193.861 78.505 184.703 75.45 176 74z"/><path fill="#DB8B2B" d="M194 57c8.875 1.256 17.556 6.924 24 13-2.862 1.43-4.934.6-8 0l-.75-2.937L208 64c-1.818-.58-1.818-.58-4-1a142 142 0 0 1-5.25-2.562l-2.703-1.38L194 58z"/><path fill="#D48627" d="M229 86c4.83 7.246 4.554 15.54 5 24-1.913-3.266-2.357-5.994-2.625-9.75l-.227-2.984L231 95l-3-1z"/><path fill="#D78A2C" d="M127 115c1.188 3.43.802 5.378-.437 8.75l-.872 2.422L125 128h-2v7l-4 2c2.07-7.608 4.858-14.773 8-22"/><path fill="#D98B2B" d="M134.375 108.938c3.662 1.482 4.378 3.69 6.023 7.152C141 118 141 118 140 120c-2-1.75-2-1.75-4-4v-4c-2.473.344-2.473.344-5 1l-1 2h-2c2.136-5.951 2.136-5.951 6.375-6.062"/><path fill="#EA922A" d="m145 171 7 3-2 2c-.643 2.069-.643 2.069-1 4h2v5c-2.472-2.963-3.662-5.54-4.687-9.25l-.762-2.703z"/><path fill="#E18927" d="M146 134c1.594 2.39 2.653 4.308 3.688 6.938l.824 2.027c.567 2.363.248 3.754-.512 6.035v-2h-4z"/><path fill="#DE8F2A" d="M217 140c-3.798 3.223-7.574 5.745-12 8l-2-1c1-2 1-2 3.438-2.937 2.86-.908 2.86-.908 4.562-4.063 2.603-.976 3.472-1.264 6 0"/><path fill="#E7881B" d="M128 139h4c-.551 3.95-1.39 7.35-3 11l-.437-1.812c-.45-1.75-.992-3.475-1.563-5.188 0-3 0-3 1-4"/><path fill="#DF8D26" d="M220 73c2.932 2.853 5.643 5.65 8 9l-1 2h-3v-4h-4l-1-3h2z"/><path fill="#E29029" d="M196 129c0 2 0 2-2 4.125-4.014 2.509-6.337 2.191-11 1.875 2.122-2.122 3.773-2.93 6.5-4.125l2.406-1.07C194 129 194 129 196 129"/><path fill="#E68E22" d="m219 132 4 1c-1.049 2.622-1.65 3.794-4.125 5.25L217 139l-1-3 1-2h2z"/><path fill="#DB8C2A" d="M141 120c1.904 2.856 2.695 4.931 3.625 8.188.26.9.52 1.802.79 2.73L146 133c-3-2-3-2-4-5l-2-1z"/><path fill="#F1F4FA" d="m89.75 51.938 2.422.027L94 52v1c-1.6.39-3.206.762-4.812 1.125l-2.708.633C84 55 84 55 81 53c2.995-.872 5.636-1.108 8.75-1.062"/><path fill="#EA8E20" d="m207 119 1 2-1 3-6 1z"/><path fill="#E19A2F" d="m151 185 2 4h2v7c-2.448-3.673-4-6.546-4-11"/></svg>