<svg xmlns="http://www.w3.org/2000/svg" width="1536" height="1024"><path fill="#121824" d="M0 0h1536v1024H0z"/><path fill="#F48909" d="M456 398c21.755 0 42.342.553 60 14l2.426 1.84c10.266 8.437 16.578 20.023 17.883 33.3.065 2.991-.05 5.88-.309 8.86l-.215 2.586c-1.018 7.25-4.537 12.573-8.785 18.414l-1.406 2.004C515.393 492.259 496.497 497.037 481 501h-3l.042 2.352c.082 8.288-.37 16.406-1.23 24.648l-.306 3.598c-1 9.585-1 9.585-3.818 12.695-4.076 2.589-7.068 2.052-11.688 1.707-4.766-8.864-8.376-18.155-12.062-27.5l-1.854-4.668a5900 5900 0 0 1-3.527-8.9c-1.585-4.009-3.19-8.01-4.804-12.006-1.02-2.61-1.91-5.255-2.753-7.926a881 881 0 0 0-2.375 4.625l-1.336 2.602c-1.572 3.245-1.572 3.245-3.289 8.773h-54l-1-7c2.144-2.144 6.698-1.686 9.672-1.973l2.65-.264q2.784-.277 5.569-.547 4.25-.416 8.5-.843l5.406-.533 2.564-.256c3.895-.375 7.72-.69 11.639-.584l.348-2.105c1.151-5.112 3.332-9.86 5.317-14.698.773-1.886 1.536-3.777 2.298-5.668l1.47-3.603 1.346-3.3C432 457 432 457 434 455c2.438-.375 2.438-.375 5 0 2.819 3.046 4.02 6.353 5.375 10.234l1.297 3.68L447 472.75l1.328 3.79q1.236 3.52 2.461 7.045c1.355 3.822 2.787 7.618 4.211 11.415z"/><path fill="#FAFAFA" d="m395.984 397.805 3.581.008c3.728.011 7.457.036 11.185.062q3.82.016 7.64.027 9.306.035 18.61.098v21l-4.858.028c-5.994.04-11.988.106-17.981.18q-3.88.042-7.757.063c-3.734.022-7.467.068-11.2.12l-3.459.003c-10.101.181-19.343 2.462-27.808 8.168-.877.58-1.755 1.158-2.66 1.754-2.268 1.585-2.268 1.585-3.96 3.399C356 434 356 434 354 434l-.75 1.688C352 438 352 438 350.188 440.125c-9.117 11.982-11.176 26.403-10.012 41.094 1.902 12.284 10.677 25.323 20.387 32.738 6.129 4.136 12.404 6.833 19.437 9.043l3 1c1.763.116 3.53.176 5.298.205l3.275.06 3.532.051 3.62.063q5.731.098 11.462.183l7.764.131q9.525.161 19.049.307v21q-11.364.112-22.73.165-3.857.022-7.715.061c-32.15.319-32.15.319-46.743-6.413-.667-.303-1.335-.606-2.024-.917-18.182-8.544-31.177-23.179-38.163-41.833q-.854-2.519-1.625-5.063l-1.078-2.93c-1.662-5.915-1.29-12.167-1.297-18.257l-.074-3.792C315.496 449.58 323.06 433.637 335 421c8.322-8.148 17.388-13.42 28-18l1.842-.817c9.95-4.104 20.518-4.476 31.142-4.378"/><path fill="#F8F8F8" d="M698 443h18a4343 4343 0 0 1 5.444 11.578q.923 1.967 1.85 3.931c.895 1.892 1.781 3.787 2.667 5.682l1.619 3.444c1.453 3.443 2.47 6.758 3.42 10.365h2l1.148-3.687c2.093-6.277 4.79-12.273 7.477-18.313l1.523-3.465c3.715-8.398 3.715-8.398 4.852-9.535h19v60h-15l-1-34-14 30h-10l-14-30-1 33h-14z"/><path fill="#EF8D0C" d="m956 443 15.375-.25 4.787-.11c8.602-.068 17.162-.035 23.795 6.199 5.234 5.822 5.557 10.642 5.379 18.38-.453 5.103-1.68 8.205-5.336 11.781-8.819 7.296-18.02 7.229-29 7v17h-15z"/><path fill="#F8F8F8" d="m779 443 15.375-.25 4.787-.11c8.612-.068 17.115-.008 23.795 6.17 4.722 5.154 5.334 9.469 5.262 16.335-.474 6.188-2.743 11.5-7.219 15.855-8.62 5.463-17.04 5.102-27 5v17h-15z"/><path fill="#F7F7F8" d="M654.598 442.902q2.232.01 4.465.036l2.298.013q2.82.02 5.639.049a3549 3549 0 0 1 16.03 37.667q1.034 2.46 2.071 4.916 1.474 3.491 2.934 6.987l.908 2.138c1.218 2.93 2.057 5.085 2.057 8.292h-16c-3-8.625-3-8.625-3-12h-27l-2 9-1 3h-16c2.309-8.499 5.63-16.406 9.188-24.437q1.313-2.993 2.624-5.987l1.738-3.963c2.805-6.398 5.511-12.836 8.177-19.292 2.621-6.303 2.621-6.303 6.87-6.419"/><path fill="#F18D0A" d="M1186 443h45v12h-30v12h27v12h-27v11h31v13h-46z"/><path fill="#F8F8F8" d="M836 443h15l.044 3.178c.059 3.921.136 7.842.218 11.763q.051 2.537.084 5.075c.034 2.443.087 4.885.142 7.328l.02 2.26c.147 5.37 1.231 9.502 3.492 14.396 3.249 2.166 4.186 2.25 7.938 2.188l2.59-.02c3.334-.177 3.334-.177 6.472-1.168 2.512-4.558 2.345-9.173 2.414-14.238l.059-2.67c.06-2.8.106-5.603.152-8.404q.057-2.858.117-5.713.142-6.988.258-13.975h15q.149 8.483.22 16.968.03 2.88.082 5.76c.408 23.127.408 23.127-6.024 30.152-6.313 5.947-12.54 7.705-21.028 7.683l-2.695-.006c-8.713-.238-13.672-2.973-19.992-8.807-5.852-10.298-4.915-21.417-4.75-32.875q.022-2.75.04-5.5c.033-4.459.085-8.917.147-13.375"/><path fill="#F28E0B" d="M1014 443h14l.028 3.162c.04 3.908.106 7.816.18 11.724q.042 2.528.063 5.054c-.034 13.08-.034 13.08 4.729 25.06 2.45 1.225 4.142 1.167 6.875 1.188l2.617.042c2.888-.265 4.226-.411 6.508-2.23 2.55-5.717 3.458-10.439 3.512-16.656l.054-2.387c.054-2.486.088-4.971.121-7.457q.05-2.547.104-5.094c.084-4.135.151-8.27.209-12.406h15q.149 7.787.22 15.576.03 2.642.082 5.283c.224 11.63-.014 21.79-6.052 32.141-6.266 5.57-14.8 8.47-23.152 8.18-7.67-.657-14.495-2.628-20.098-8.18-4.583-6.44-5.708-11.709-5.488-19.504l.021-2.92c.028-3.048.09-6.092.154-9.139q.038-3.117.069-6.236c.055-5.068.14-10.134.244-15.201"/><path fill="#F18F0B" d="m1173 447 3 2c-1.45 4.11-3.511 7.433-6 11-5.44-1.768-5.44-1.768-7.934-2.8-4.51-1.856-8.101-2.687-13.066-2.2l-3 2c.168 2.447.168 2.447 1 5 1.84 1.304 1.84 1.304 4.25 2l2.719.98q3.186 1.072 6.375 2.133c11.371 4.004 11.371 4.004 14.761 8.664 1.984 4.929 1.675 10.052.895 15.223-2.512 5.304-6.197 8.853-11.652 11.086-10.193 2.783-22.007 1.844-31.348-3.086-2.492-1.546-4.704-3.163-7-5 1.45-4.11 3.511-7.433 6-11 3.606 1.34 6.71 3.025 10 5 4.475 2.362 9.033 2.604 14 2 2.225-.76 2.225-.76 4-2 .812-2.555.812-2.555 1-5-4.881-2.074-9.936-3.523-15.03-4.969-6.843-2.05-11.768-5.116-15.97-11.031-2.109-4.218-.916-9.527 0-14 1.53-3 3.376-4.916 6-7l1.578-1.309c10.261-6.679 25.563-3.168 35.422 2.309"/><path fill="#F8F8F8" d="M943 446c1.828 1.637 1.828 1.637 3 3-1.225 4.053-2.699 7.444-5 11-5.596-1.819-5.596-1.819-7.863-2.836-5.263-2.299-9.531-2.489-15.137-1.164-1.296 1.066-1.296 1.066-1.062 3.563L917 462c4.974 2.361 9.932 4.346 15.188 6 5.656 1.85 9.627 3.596 13.687 8.063 2.033 5.308 2.16 10.838.352 16.253-2.558 4.78-6.097 7.665-11.028 9.832-10.298 2.742-21.243 1.95-30.828-2.703-3.032-1.848-5.157-3.677-7.371-6.445l7-10 8.203 4.59c3.898 1.965 7.02 2.56 11.36 2.598l2.316.042c2.423-.098 2.423-.098 5.121-2.23.052-2.423.052-2.423-1-5-3.236-1.798-6.401-2.81-9.922-3.93C905.302 474.33 905.302 474.33 901 467c-1.351-5.048-1.62-9.491.563-14.312 8.472-14.412 28-13.252 41.437-6.688"/><path fill="#161A23" d="M477 417c23.893 5.514 23.893 5.514 30.66 15.434 5.227 8.514 6.37 15.662 5.34 25.566-2.829 7.922-9.076 14.409-16.49 18.31a151 151 0 0 1-7.885 3.127l-2.73 1.061C479.363 483 479.363 483 477 483z"/><path fill="#F8F8F9" d="M617 446c2.53 1.873 4.717 3.816 7 6-1.923 4.294-4.625 6.772-8 10-2.203-1.06-4.149-2.11-6.125-3.562-4.647-2.324-9.818-3.139-14.937-1.965-4.515 1.78-7.414 4.393-10.188 8.277-1.89 5.672-.97 11.034 1.258 16.422 1.881 3.467 4.474 6.069 7.992 7.828 6.346.685 11.244-.32 17-3 1.692-1.53 1.692-1.53 3-3 4.292 1.65 6.88 4.738 10 8-2.11 5.371-6.283 7.85-11.312 10.25-8.448 3.182-18.845 3.196-27.313.063-8.164-3.925-13.147-9.726-16.492-18.114-2.312-8.379-2.01-18.076 1.726-25.984 4.608-7.338 10.985-12.145 19.18-14.793 9.205-1.756 19.07-1.272 27.211 3.578"/><path fill="#EF8D0C" d="M1079 443h15v47h28v13q-8.944.037-17.89.055-3.045.008-6.09.02c-2.912.013-5.823.018-8.735.023l-2.768.015c-2.173 0-4.345-.05-6.517-.113-1-1-1-1-1.12-3.36l.006-3.17v-3.579l.016-3.895.005-3.964q.006-5.226.024-10.45.014-5.33.02-10.658.017-10.463.049-20.924"/><path fill="#181D26" d="M971 455c13.125-.536 13.125-.536 16.813 1.375 2.873 3.449 2.829 5.807 2.789 10.188-.82 3.317-1.794 4.481-4.602 6.437-2.768.294-5.014.383-7.75.25L971 473z"/><path fill="#161C28" d="M794 455c12.922-.43 12.922-.43 18 3 1.65 1.65 1.25 3.548 1.313 5.813l.113 2.644C813 469 813 469 811.465 471.309c-3.364 2.308-6.301 2.132-10.215 1.941L794 473z"/><path fill="#21262F" d="M658 460c2.76 3.286 4.183 6.622 5.688 10.625l1.324 3.477C666 477 666 477 666 479h-15c1.866-6.623 4.044-12.788 7-19"/><path fill="#1C1D20" d="M455 480h1v17c-2.686-2.686-3.06-5.376-4-9l3-1z"/><path fill="#32271A" d="m435 484 2 1c.625 2.563.625 2.563 1 5h-3l-1 2h-2c1.875-5.75 1.875-5.75 3-8"/></svg>